<svg width="10" height="17" viewBox="0 0 10 17" fill="none" xmlns="http://www.w3.org/2000/svg">
<path d="M9.9715 14.4114V16.5364C9.9715 16.6593 9.92648 16.7773 9.84634 16.8642C9.76619 16.9512 9.65749 17 9.54416 17C9.43081 17 9.32212 16.9512 9.24197 16.8642C9.16183 16.7773 9.11681 16.6593 9.11681 16.5364V14.4114C9.11937 13.464 8.87733 12.5348 8.41811 11.729C7.95889 10.9233 7.30085 10.2731 6.51853 9.85227L3.07125 7.98227C2.14578 7.48459 1.36744 6.71541 0.824574 5.76203C0.281707 4.80865 -0.00394481 3.70926 4.11513e-05 2.58864L4.11513e-05 0.463636C4.11513e-05 0.340672 0.0450652 0.222745 0.125209 0.135796C0.205352 0.0488472 0.31405 0 0.42739 0C0.540729 0 0.649427 0.0488472 0.72957 0.135796C0.809714 0.222745 0.854738 0.340672 0.854738 0.463636V2.58864C0.852177 3.53599 1.09422 4.46519 1.55344 5.27096C2.01266 6.07674 2.6707 6.72688 3.45302 7.14773L6.90029 9.01773C7.82576 9.51541 8.6041 10.2846 9.14697 11.238C9.68984 12.1913 9.97549 13.2907 9.9715 14.4114ZM7.26496 14.2182H0.858299C0.877736 13.6903 0.972647 13.169 1.13964 12.6727H6.41953C6.53287 12.6727 6.64156 12.6239 6.72171 12.5369C6.80185 12.45 6.84687 12.3321 6.84687 12.2091C6.84687 12.0861 6.80185 11.9682 6.72171 11.8813C6.64156 11.7943 6.53287 11.7455 6.41953 11.7455H1.5506C1.86786 11.1824 2.28296 10.6917 2.77282 10.3005C2.86117 10.2265 2.91936 10.118 2.93495 9.99814C2.95055 9.87827 2.9223 9.75654 2.85627 9.65896C2.79023 9.56138 2.69163 9.49569 2.58154 9.47593C2.47145 9.45618 2.35861 9.48392 2.26712 9.55323C1.56547 10.1143 0.994864 10.8461 0.601138 11.6898C0.207412 12.5336 0.00153576 13.4657 4.11513e-05 14.4114L4.11513e-05 16.5364C4.11513e-05 16.6593 0.0450652 16.7773 0.125209 16.8642C0.205352 16.9512 0.31405 17 0.42739 17C0.540729 17 0.649427 16.9512 0.72957 16.8642C0.809714 16.7773 0.854738 16.6593 0.854738 16.5364V15.1455H7.26496C7.3783 15.1455 7.487 15.0966 7.56714 15.0097C7.64729 14.9227 7.69231 14.8048 7.69231 14.6818C7.69231 14.5589 7.64729 14.4409 7.56714 14.354C7.487 14.267 7.3783 14.2182 7.26496 14.2182ZM9.54416 0C9.43081 0 9.32212 0.0488472 9.24197 0.135796C9.16183 0.222745 9.11681 0.340672 9.11681 0.463636V1.85455H2.70658C2.59324 1.85455 2.48454 1.90339 2.4044 1.99034C2.32426 2.07729 2.27923 2.19522 2.27923 2.31818C2.27923 2.44115 2.32426 2.55907 2.4044 2.64602C2.48454 2.73297 2.59324 2.78182 2.70658 2.78182H9.11681C9.09623 3.30987 9.00011 3.83125 8.83191 4.32727H3.55344C3.4401 4.32727 3.33141 4.37612 3.25126 4.46307C3.17112 4.55002 3.12609 4.66794 3.12609 4.79091C3.12609 4.91387 3.17112 5.0318 3.25126 5.11875C3.33141 5.2057 3.4401 5.25455 3.55344 5.25455H8.42094C8.10368 5.81758 7.68858 6.30835 7.19872 6.69955C7.11037 6.77349 7.05218 6.88199 7.03659 7.00186C7.021 7.12173 7.04924 7.24346 7.11528 7.34104C7.18132 7.43862 7.27992 7.50431 7.39 7.52407C7.50009 7.54382 7.61294 7.51608 7.70442 7.44677C8.40608 6.88567 8.97668 6.15388 9.37041 5.31016C9.76413 4.46645 9.97001 3.53432 9.9715 2.58864V0.463636C9.9715 0.340672 9.92648 0.222745 9.84634 0.135796C9.76619 0.0488472 9.65749 0 9.54416 0Z" fill="white"/>
</svg>
