<svg width="14" height="13" viewBox="0 0 14 13" fill="none" xmlns="http://www.w3.org/2000/svg">
<path d="M5.53552 0.25C4.03838 0.25 2.80052 1.43571 2.80052 2.92857C2.80052 4.42143 4.03838 5.60714 5.53552 5.60714C6.71409 5.60714 7.73195 4.87214 8.11195 3.83143C8.29254 4.21666 8.59796 4.52959 8.97868 4.71949C9.35941 4.90939 9.79312 4.96511 10.2095 4.87763C10.6259 4.79015 11.0005 4.56459 11.2726 4.23752C11.5447 3.91046 11.6983 3.50107 11.7086 3.07574C11.7189 2.6504 11.5852 2.23407 11.3292 1.89424C11.0732 1.55441 10.71 1.31101 10.2983 1.20351C9.88665 1.09601 9.45075 1.13072 9.0613 1.302C8.67184 1.47328 8.35166 1.77109 8.15266 2.14714C7.80981 1.04286 6.75981 0.25 5.53552 0.25ZM3.87195 2.92857C3.87195 2.05429 4.60338 1.32143 5.53552 1.32143C6.46766 1.32143 7.19909 2.05429 7.19909 2.92857C7.19909 3.80286 6.46766 4.53571 5.53552 4.53571C4.60338 4.53571 3.87195 3.80286 3.87195 2.92857ZM8.64766 3.03071C8.64766 2.71946 8.77131 2.42096 8.99139 2.20087C9.21148 1.98079 9.50998 1.85714 9.82124 1.85714C10.1325 1.85714 10.431 1.98079 10.6511 2.20087C10.8712 2.42096 10.9948 2.71946 10.9948 3.03071C10.9948 3.34196 10.8712 3.64047 10.6511 3.86055C10.431 4.08064 10.1325 4.20429 9.82124 4.20429C9.50998 4.20429 9.21148 4.08064 8.99139 3.86055C8.77131 3.64047 8.64766 3.34196 8.64766 3.03071ZM4.31052 6.29071C4.02266 6.10429 3.60766 5.96071 3.17052 6.08071C3.05385 6.1131 2.93766 6.14762 2.82195 6.18429L2.11909 6.41C1.23838 6.69143 0.556235 7.39071 0.326235 8.27643L0.318378 8.305L0.0183779 10.4136C-0.100908 11.2564 0.364807 12.1286 1.28981 12.3429C2.14481 12.5414 3.52266 12.75 5.53552 12.75C7.54838 12.75 8.92552 12.5414 9.78195 12.3429C10.7055 12.1286 11.172 11.2571 11.0527 10.4136L10.7527 8.30571L10.7455 8.27643C10.5148 7.39071 9.83266 6.69143 8.95195 6.41L8.24909 6.18429C8.13338 6.14762 8.01719 6.1131 7.90052 6.08071C7.46338 5.96071 7.04838 6.10429 6.76052 6.29071C6.49624 6.46214 6.06481 6.66857 5.53552 6.66857C5.00695 6.66857 4.57481 6.46214 4.31052 6.29071ZM3.45481 7.11286C3.50052 7.10071 3.59909 7.10571 3.72909 7.18929C4.09481 7.42643 4.72909 7.73929 5.53552 7.73929C6.34195 7.73929 6.97623 7.42643 7.34266 7.18929C7.47124 7.10571 7.57052 7.10071 7.61624 7.11286C7.71862 7.14143 7.82052 7.17191 7.92195 7.20429L8.62552 7.42929C9.16124 7.60071 9.55981 8.015 9.70123 8.51786L9.99124 10.5636C10.0448 10.94 9.84409 11.2279 9.53909 11.2993C8.76981 11.4779 7.47409 11.6779 5.53552 11.6779C3.59695 11.6779 2.30123 11.4779 1.53195 11.2993C1.22695 11.2279 1.02623 10.94 1.07909 10.5636L1.36981 8.51786C1.44506 8.26158 1.58272 8.02798 1.77047 7.83799C1.95821 7.64801 2.19016 7.50758 2.44552 7.42929L3.14909 7.20429C3.25052 7.17191 3.35243 7.14143 3.45481 7.11286Z" fill="white"/>
<path d="M11.3805 5.28402C11.268 5.25594 11.1504 5.25435 11.0371 5.27939C10.9239 5.30443 10.8179 5.3554 10.7277 5.42831C10.5348 5.57831 10.1934 5.78545 9.82125 5.78545C9.72653 5.78545 9.63569 5.82308 9.56872 5.89006C9.50174 5.95703 9.46411 6.04787 9.46411 6.14259C9.46411 6.23731 9.50174 6.32816 9.56872 6.39513C9.63569 6.46211 9.72653 6.49974 9.82125 6.49974C10.4341 6.49974 10.9327 6.17331 11.1663 5.99259C11.1749 5.98441 11.1855 5.97852 11.197 5.97545H11.1998C11.2955 6.00069 11.3905 6.02878 11.4848 6.05974L11.9741 6.22045C12.3498 6.34402 12.6348 6.64474 12.7355 7.01617L12.9377 8.47974C12.9777 8.76759 12.8263 8.98331 12.6091 9.03474C12.4496 9.07378 12.256 9.11188 12.0284 9.14902C11.9821 9.15653 11.9377 9.17308 11.8977 9.19775C11.8578 9.22242 11.8231 9.25471 11.7956 9.29278C11.7682 9.33085 11.7485 9.37396 11.7377 9.41964C11.7269 9.46532 11.7252 9.51269 11.7327 9.55902C11.7402 9.60536 11.7567 9.64977 11.7814 9.68971C11.8061 9.72964 11.8384 9.76433 11.8764 9.79179C11.9145 9.81925 11.9576 9.83895 12.0033 9.84975C12.049 9.86055 12.0963 9.86224 12.1427 9.85474C12.3865 9.81426 12.597 9.77259 12.7741 9.72974C13.4134 9.57759 13.7263 8.96545 13.6455 8.38188L13.4377 6.87759L13.4327 6.85831C13.3545 6.55247 13.2001 6.27138 12.9841 6.04121C12.768 5.81105 12.4973 5.63927 12.197 5.54188L11.7077 5.38117C11.5996 5.34554 11.4905 5.31314 11.3805 5.28402Z" fill="white"/>
</svg>
